<svg xmlns="http://www.w3.org/2000/svg" xmlns:xlink="http://www.w3.org/1999/xlink" width="1344" zoomAndPan="magnify" viewBox="0 0 1008 1295.99994" height="1728" preserveAspectRatio="xMidYMid meet" version="1.0"><defs><g/><linearGradient x1="0" gradientTransform="matrix(0.75, 0, 0, 0.75, 0.0000235278, -0.00002)" y1="0" x2="1343.999944" gradientUnits="userSpaceOnUse" y2="0" id="1aa99516e4"><stop stop-opacity="1" stop-color="rgb(80.39856%, 100%, 84.698486%)" offset="0"/><stop stop-opacity="1" stop-color="rgb(80.311584%, 99.891663%, 84.757996%)" offset="0.0078125"/><stop stop-opacity="1" stop-color="rgb(80.136108%, 99.676514%, 84.87854%)" offset="0.015625"/><stop stop-opacity="1" stop-color="rgb(79.960632%, 99.461365%, 84.997559%)" offset="0.0234375"/><stop stop-opacity="1" stop-color="rgb(79.786682%, 99.246216%, 85.116577%)" offset="0.03125"/><stop stop-opacity="1" stop-color="rgb(79.611206%, 99.032593%, 85.237122%)" offset="0.0390625"/><stop stop-opacity="1" stop-color="rgb(79.43573%, 98.817444%, 85.35614%)" offset="0.046875"/><stop stop-opacity="1" stop-color="rgb(79.26178%, 98.602295%, 85.476685%)" offset="0.0546875"/><stop stop-opacity="1" stop-color="rgb(79.086304%, 98.387146%, 85.595703%)" offset="0.0625"/><stop stop-opacity="1" stop-color="rgb(78.910828%, 98.171997%, 85.714722%)" offset="0.0703125"/><stop stop-opacity="1" stop-color="rgb(78.736877%, 97.958374%, 85.835266%)" offset="0.078125"/><stop stop-opacity="1" stop-color="rgb(78.561401%, 97.743225%, 85.954285%)" offset="0.0859375"/><stop stop-opacity="1" stop-color="rgb(78.385925%, 97.528076%, 86.073303%)" offset="0.09375"/><stop stop-opacity="1" stop-color="rgb(78.211975%, 97.312927%, 86.193848%)" offset="0.101562"/><stop stop-opacity="1" stop-color="rgb(78.036499%, 97.097778%, 86.312866%)" offset="0.109375"/><stop stop-opacity="1" stop-color="rgb(77.861023%, 96.884155%, 86.431885%)" offset="0.117188"/><stop stop-opacity="1" stop-color="rgb(77.685547%, 96.669006%, 86.552429%)" offset="0.125"/><stop stop-opacity="1" stop-color="rgb(77.511597%, 96.453857%, 86.671448%)" offset="0.132812"/><stop stop-opacity="1" stop-color="rgb(77.336121%, 96.238708%, 86.790466%)" offset="0.140625"/><stop stop-opacity="1" stop-color="rgb(77.160645%, 96.02356%, 86.911011%)" offset="0.148438"/><stop stop-opacity="1" stop-color="rgb(76.986694%, 95.809937%, 87.030029%)" offset="0.15625"/><stop stop-opacity="1" stop-color="rgb(76.811218%, 95.594788%, 87.149048%)" offset="0.164062"/><stop stop-opacity="1" stop-color="rgb(76.635742%, 95.379639%, 87.269592%)" offset="0.171875"/><stop stop-opacity="1" stop-color="rgb(76.461792%, 95.16449%, 87.388611%)" offset="0.179688"/><stop stop-opacity="1" stop-color="rgb(76.286316%, 94.949341%, 87.507629%)" offset="0.1875"/><stop stop-opacity="1" stop-color="rgb(76.11084%, 94.735718%, 87.628174%)" offset="0.195312"/><stop stop-opacity="1" stop-color="rgb(75.93689%, 94.520569%, 87.747192%)" offset="0.203125"/><stop stop-opacity="1" stop-color="rgb(75.761414%, 94.30542%, 87.866211%)" offset="0.210938"/><stop stop-opacity="1" stop-color="rgb(75.585938%, 94.090271%, 87.986755%)" offset="0.21875"/><stop stop-opacity="1" stop-color="rgb(75.410461%, 93.875122%, 88.105774%)" offset="0.226562"/><stop stop-opacity="1" stop-color="rgb(75.236511%, 93.661499%, 88.224792%)" offset="0.234375"/><stop stop-opacity="1" stop-color="rgb(75.061035%, 93.44635%, 88.345337%)" offset="0.242188"/><stop stop-opacity="1" stop-color="rgb(74.885559%, 93.231201%, 88.464355%)" offset="0.25"/><stop stop-opacity="1" stop-color="rgb(74.711609%, 93.016052%, 88.583374%)" offset="0.257812"/><stop stop-opacity="1" stop-color="rgb(74.536133%, 92.800903%, 88.703918%)" offset="0.265625"/><stop stop-opacity="1" stop-color="rgb(74.360657%, 92.58728%, 88.822937%)" offset="0.273438"/><stop stop-opacity="1" stop-color="rgb(74.186707%, 92.372131%, 88.941956%)" offset="0.28125"/><stop stop-opacity="1" stop-color="rgb(74.01123%, 92.156982%, 89.0625%)" offset="0.289062"/><stop stop-opacity="1" stop-color="rgb(73.835754%, 91.941833%, 89.181519%)" offset="0.296875"/><stop stop-opacity="1" stop-color="rgb(73.661804%, 91.726685%, 89.300537%)" offset="0.304688"/><stop stop-opacity="1" stop-color="rgb(73.486328%, 91.513062%, 89.421082%)" offset="0.3125"/><stop stop-opacity="1" stop-color="rgb(73.310852%, 91.297913%, 89.5401%)" offset="0.320312"/><stop stop-opacity="1" stop-color="rgb(73.136902%, 91.082764%, 89.659119%)" offset="0.328125"/><stop stop-opacity="1" stop-color="rgb(72.961426%, 90.867615%, 89.779663%)" offset="0.335938"/><stop stop-opacity="1" stop-color="rgb(72.78595%, 90.652466%, 89.898682%)" offset="0.34375"/><stop stop-opacity="1" stop-color="rgb(72.610474%, 90.438843%, 90.0177%)" offset="0.351562"/><stop stop-opacity="1" stop-color="rgb(72.436523%, 90.223694%, 90.138245%)" offset="0.359375"/><stop stop-opacity="1" stop-color="rgb(72.261047%, 90.008545%, 90.257263%)" offset="0.367188"/><stop stop-opacity="1" stop-color="rgb(72.085571%, 89.793396%, 90.376282%)" offset="0.375"/><stop stop-opacity="1" stop-color="rgb(71.911621%, 89.578247%, 90.496826%)" offset="0.382812"/><stop stop-opacity="1" stop-color="rgb(71.736145%, 89.364624%, 90.615845%)" offset="0.390625"/><stop stop-opacity="1" stop-color="rgb(71.560669%, 89.149475%, 90.734863%)" offset="0.398438"/><stop stop-opacity="1" stop-color="rgb(71.386719%, 88.934326%, 90.855408%)" offset="0.40625"/><stop stop-opacity="1" stop-color="rgb(71.211243%, 88.719177%, 90.974426%)" offset="0.414062"/><stop stop-opacity="1" stop-color="rgb(71.035767%, 88.504028%, 91.093445%)" offset="0.421875"/><stop stop-opacity="1" stop-color="rgb(70.861816%, 88.290405%, 91.213989%)" offset="0.429688"/><stop stop-opacity="1" stop-color="rgb(70.68634%, 88.075256%, 91.333008%)" offset="0.4375"/><stop stop-opacity="1" stop-color="rgb(70.510864%, 87.860107%, 91.452026%)" offset="0.445312"/><stop stop-opacity="1" stop-color="rgb(70.336914%, 87.644958%, 91.572571%)" offset="0.453125"/><stop stop-opacity="1" stop-color="rgb(70.161438%, 87.42981%, 91.691589%)" offset="0.460938"/><stop stop-opacity="1" stop-color="rgb(69.985962%, 87.216187%, 91.810608%)" offset="0.46875"/><stop stop-opacity="1" stop-color="rgb(69.810486%, 87.001038%, 91.931152%)" offset="0.476562"/><stop stop-opacity="1" stop-color="rgb(69.636536%, 86.785889%, 92.050171%)" offset="0.484375"/><stop stop-opacity="1" stop-color="rgb(69.46106%, 86.57074%, 92.169189%)" offset="0.492188"/><stop stop-opacity="1" stop-color="rgb(69.285583%, 86.355591%, 92.289734%)" offset="0.5"/><stop stop-opacity="1" stop-color="rgb(69.111633%, 86.141968%, 92.408752%)" offset="0.507812"/><stop stop-opacity="1" stop-color="rgb(68.936157%, 85.926819%, 92.527771%)" offset="0.515625"/><stop stop-opacity="1" stop-color="rgb(68.760681%, 85.71167%, 92.648315%)" offset="0.523438"/><stop stop-opacity="1" stop-color="rgb(68.586731%, 85.496521%, 92.767334%)" offset="0.53125"/><stop stop-opacity="1" stop-color="rgb(68.411255%, 85.281372%, 92.886353%)" offset="0.539062"/><stop stop-opacity="1" stop-color="rgb(68.235779%, 85.067749%, 93.006897%)" offset="0.546875"/><stop stop-opacity="1" stop-color="rgb(68.061829%, 84.8526%, 93.125916%)" offset="0.554688"/><stop stop-opacity="1" stop-color="rgb(67.886353%, 84.637451%, 93.244934%)" offset="0.5625"/><stop stop-opacity="1" stop-color="rgb(67.710876%, 84.422302%, 93.365479%)" offset="0.570312"/><stop stop-opacity="1" stop-color="rgb(67.536926%, 84.207153%, 93.484497%)" offset="0.578125"/><stop stop-opacity="1" stop-color="rgb(67.36145%, 83.99353%, 93.603516%)" offset="0.585938"/><stop stop-opacity="1" stop-color="rgb(67.185974%, 83.778381%, 93.72406%)" offset="0.59375"/><stop stop-opacity="1" stop-color="rgb(67.010498%, 83.563232%, 93.843079%)" offset="0.601562"/><stop stop-opacity="1" stop-color="rgb(66.836548%, 83.348083%, 93.962097%)" offset="0.609375"/><stop stop-opacity="1" stop-color="rgb(66.661072%, 83.132935%, 94.082642%)" offset="0.617188"/><stop stop-opacity="1" stop-color="rgb(66.485596%, 82.919312%, 94.20166%)" offset="0.625"/><stop stop-opacity="1" stop-color="rgb(66.311646%, 82.704163%, 94.320679%)" offset="0.632812"/><stop stop-opacity="1" stop-color="rgb(66.136169%, 82.489014%, 94.441223%)" offset="0.640625"/><stop stop-opacity="1" stop-color="rgb(65.960693%, 82.273865%, 94.560242%)" offset="0.648438"/><stop stop-opacity="1" stop-color="rgb(65.786743%, 82.058716%, 94.67926%)" offset="0.65625"/><stop stop-opacity="1" stop-color="rgb(65.611267%, 81.845093%, 94.799805%)" offset="0.664062"/><stop stop-opacity="1" stop-color="rgb(65.435791%, 81.629944%, 94.918823%)" offset="0.671875"/><stop stop-opacity="1" stop-color="rgb(65.261841%, 81.414795%, 95.037842%)" offset="0.679688"/><stop stop-opacity="1" stop-color="rgb(65.086365%, 81.199646%, 95.158386%)" offset="0.6875"/><stop stop-opacity="1" stop-color="rgb(64.910889%, 80.984497%, 95.277405%)" offset="0.695312"/><stop stop-opacity="1" stop-color="rgb(64.736938%, 80.770874%, 95.396423%)" offset="0.703125"/><stop stop-opacity="1" stop-color="rgb(64.561462%, 80.555725%, 95.516968%)" offset="0.710938"/><stop stop-opacity="1" stop-color="rgb(64.385986%, 80.340576%, 95.635986%)" offset="0.71875"/><stop stop-opacity="1" stop-color="rgb(64.21051%, 80.125427%, 95.755005%)" offset="0.726562"/><stop stop-opacity="1" stop-color="rgb(64.03656%, 79.910278%, 95.875549%)" offset="0.734375"/><stop stop-opacity="1" stop-color="rgb(63.861084%, 79.696655%, 95.994568%)" offset="0.742188"/><stop stop-opacity="1" stop-color="rgb(63.685608%, 79.481506%, 96.113586%)" offset="0.75"/><stop stop-opacity="1" stop-color="rgb(63.511658%, 79.266357%, 96.234131%)" offset="0.757812"/><stop stop-opacity="1" stop-color="rgb(63.336182%, 79.051208%, 96.353149%)" offset="0.765625"/><stop stop-opacity="1" stop-color="rgb(63.160706%, 78.83606%, 96.472168%)" offset="0.773438"/><stop stop-opacity="1" stop-color="rgb(62.986755%, 78.622437%, 96.592712%)" offset="0.78125"/><stop stop-opacity="1" stop-color="rgb(62.811279%, 78.407288%, 96.711731%)" offset="0.789062"/><stop stop-opacity="1" stop-color="rgb(62.635803%, 78.192139%, 96.83075%)" offset="0.796875"/><stop stop-opacity="1" stop-color="rgb(62.461853%, 77.97699%, 96.951294%)" offset="0.804688"/><stop stop-opacity="1" stop-color="rgb(62.286377%, 77.761841%, 97.070312%)" offset="0.8125"/><stop stop-opacity="1" stop-color="rgb(62.110901%, 77.548218%, 97.189331%)" offset="0.820312"/><stop stop-opacity="1" stop-color="rgb(61.936951%, 77.333069%, 97.309875%)" offset="0.828125"/><stop stop-opacity="1" stop-color="rgb(61.761475%, 77.11792%, 97.428894%)" offset="0.835938"/><stop stop-opacity="1" stop-color="rgb(61.585999%, 76.902771%, 97.547913%)" offset="0.84375"/><stop stop-opacity="1" stop-color="rgb(61.410522%, 76.687622%, 97.668457%)" offset="0.851562"/><stop stop-opacity="1" stop-color="rgb(61.236572%, 76.473999%, 97.787476%)" offset="0.859375"/><stop stop-opacity="1" stop-color="rgb(61.061096%, 76.25885%, 97.906494%)" offset="0.867188"/><stop stop-opacity="1" stop-color="rgb(60.88562%, 76.043701%, 98.027039%)" offset="0.875"/><stop stop-opacity="1" stop-color="rgb(60.71167%, 75.828552%, 98.146057%)" offset="0.882812"/><stop stop-opacity="1" stop-color="rgb(60.536194%, 75.613403%, 98.265076%)" offset="0.890625"/><stop stop-opacity="1" stop-color="rgb(60.360718%, 75.39978%, 98.38562%)" offset="0.898438"/><stop stop-opacity="1" stop-color="rgb(60.186768%, 75.184631%, 98.504639%)" offset="0.90625"/><stop stop-opacity="1" stop-color="rgb(60.011292%, 74.969482%, 98.623657%)" offset="0.914062"/><stop stop-opacity="1" stop-color="rgb(59.835815%, 74.754333%, 98.744202%)" offset="0.921875"/><stop stop-opacity="1" stop-color="rgb(59.661865%, 74.539185%, 98.86322%)" offset="0.929688"/><stop stop-opacity="1" stop-color="rgb(59.486389%, 74.325562%, 98.982239%)" offset="0.9375"/><stop stop-opacity="1" stop-color="rgb(59.310913%, 74.110413%, 99.102783%)" offset="0.945312"/><stop stop-opacity="1" stop-color="rgb(59.136963%, 73.895264%, 99.221802%)" offset="0.953125"/><stop stop-opacity="1" stop-color="rgb(58.961487%, 73.680115%, 99.34082%)" offset="0.960938"/><stop stop-opacity="1" stop-color="rgb(58.786011%, 73.464966%, 99.461365%)" offset="0.96875"/><stop stop-opacity="1" stop-color="rgb(58.610535%, 73.251343%, 99.580383%)" offset="0.976562"/><stop stop-opacity="1" stop-color="rgb(58.436584%, 73.036194%, 99.699402%)" offset="0.984375"/><stop stop-opacity="1" stop-color="rgb(58.261108%, 72.821045%, 99.819946%)" offset="0.992188"/><stop stop-opacity="1" stop-color="rgb(58.085632%, 72.605896%, 99.938965%)" offset="1"/></linearGradient><clipPath id="74246d395d"><path d="M 368.785156 392.945312 L 856.945312 392.945312 L 856.945312 881.105469 L 368.785156 881.105469 Z M 368.785156 392.945312 " clip-rule="nonzero"/></clipPath><clipPath id="d5599d8d8b"><path d="M 612.867188 392.945312 C 478.0625 392.945312 368.785156 502.222656 368.785156 637.023438 C 368.785156 771.828125 478.0625 881.105469 612.867188 881.105469 C 747.667969 881.105469 856.945312 771.828125 856.945312 637.023438 C 856.945312 502.222656 747.667969 392.945312 612.867188 392.945312 " clip-rule="nonzero"/></clipPath><linearGradient x1="-0.00000148416" gradientTransform="matrix(0.650883, 0, 0, 0.650883, 368.784366, 392.943812)" y1="0" x2="749.999986" gradientUnits="userSpaceOnUse" y2="0" id="d90a60ae98"><stop stop-opacity="1" stop-color="rgb(36.499023%, 87.799072%, 90.19928%)" offset="0"/><stop stop-opacity="1" stop-color="rgb(36.355591%, 87.568665%, 90.110779%)" offset="0.00390625"/><stop stop-opacity="1" stop-color="rgb(36.213684%, 87.339783%, 90.023804%)" offset="0.0078125"/><stop stop-opacity="1" stop-color="rgb(36.070251%, 87.109375%, 89.936829%)" offset="0.0117188"/><stop stop-opacity="1" stop-color="rgb(35.928345%, 86.880493%, 89.849854%)" offset="0.015625"/><stop stop-opacity="1" stop-color="rgb(35.786438%, 86.650085%, 89.761353%)" offset="0.0195312"/><stop stop-opacity="1" stop-color="rgb(35.644531%, 86.421204%, 89.674377%)" offset="0.0234375"/><stop stop-opacity="1" stop-color="rgb(35.501099%, 86.190796%, 89.585876%)" offset="0.0273438"/><stop stop-opacity="1" stop-color="rgb(35.359192%, 85.961914%, 89.498901%)" offset="0.03125"/><stop stop-opacity="1" stop-color="rgb(35.215759%, 85.731506%, 89.411926%)" offset="0.0351562"/><stop stop-opacity="1" stop-color="rgb(35.073853%, 85.502625%, 89.324951%)" offset="0.0390625"/><stop stop-opacity="1" stop-color="rgb(34.93042%, 85.272217%, 89.23645%)" offset="0.0429688"/><stop stop-opacity="1" stop-color="rgb(34.788513%, 85.043335%, 89.149475%)" offset="0.046875"/><stop stop-opacity="1" stop-color="rgb(34.645081%, 84.812927%, 89.060974%)" offset="0.0507812"/><stop stop-opacity="1" stop-color="rgb(34.503174%, 84.584045%, 88.973999%)" offset="0.0546875"/><stop stop-opacity="1" stop-color="rgb(34.359741%, 84.353638%, 88.885498%)" offset="0.0585938"/><stop stop-opacity="1" stop-color="rgb(34.217834%, 84.124756%, 88.798523%)" offset="0.0625"/><stop stop-opacity="1" stop-color="rgb(34.074402%, 83.894348%, 88.711548%)" offset="0.0664063"/><stop stop-opacity="1" stop-color="rgb(33.932495%, 83.665466%, 88.624573%)" offset="0.0703125"/><stop stop-opacity="1" stop-color="rgb(33.789062%, 83.435059%, 88.536072%)" offset="0.0742188"/><stop stop-opacity="1" stop-color="rgb(33.647156%, 83.206177%, 88.449097%)" offset="0.078125"/><stop stop-opacity="1" stop-color="rgb(33.503723%, 82.975769%, 88.360596%)" offset="0.0820312"/><stop stop-opacity="1" stop-color="rgb(33.361816%, 82.745361%, 88.273621%)" offset="0.0859375"/><stop stop-opacity="1" stop-color="rgb(33.21991%, 82.514954%, 88.186646%)" offset="0.0898438"/><stop stop-opacity="1" stop-color="rgb(33.078003%, 82.286072%, 88.09967%)" offset="0.09375"/><stop stop-opacity="1" stop-color="rgb(32.93457%, 82.055664%, 88.011169%)" offset="0.0976563"/><stop stop-opacity="1" stop-color="rgb(32.792664%, 81.826782%, 87.924194%)" offset="0.101563"/><stop stop-opacity="1" stop-color="rgb(32.649231%, 81.596375%, 87.835693%)" offset="0.105469"/><stop stop-opacity="1" stop-color="rgb(32.507324%, 81.367493%, 87.748718%)" offset="0.109375"/><stop stop-opacity="1" stop-color="rgb(32.363892%, 81.137085%, 87.661743%)" offset="0.113281"/><stop stop-opacity="1" stop-color="rgb(32.221985%, 80.908203%, 87.574768%)" offset="0.117188"/><stop stop-opacity="1" stop-color="rgb(32.078552%, 80.677795%, 87.486267%)" offset="0.121094"/><stop stop-opacity="1" stop-color="rgb(31.936646%, 80.448914%, 87.399292%)" offset="0.125"/><stop stop-opacity="1" stop-color="rgb(31.793213%, 80.218506%, 87.310791%)" offset="0.128906"/><stop stop-opacity="1" stop-color="rgb(31.651306%, 79.989624%, 87.223816%)" offset="0.132813"/><stop stop-opacity="1" stop-color="rgb(31.507874%, 79.759216%, 87.136841%)" offset="0.136719"/><stop stop-opacity="1" stop-color="rgb(31.365967%, 79.530334%, 87.049866%)" offset="0.140625"/><stop stop-opacity="1" stop-color="rgb(31.222534%, 79.299927%, 86.961365%)" offset="0.144531"/><stop stop-opacity="1" stop-color="rgb(31.080627%, 79.071045%, 86.87439%)" offset="0.148438"/><stop stop-opacity="1" stop-color="rgb(30.938721%, 78.840637%, 86.785889%)" offset="0.152344"/><stop stop-opacity="1" stop-color="rgb(30.796814%, 78.611755%, 86.698914%)" offset="0.15625"/><stop stop-opacity="1" stop-color="rgb(30.653381%, 78.381348%, 86.611938%)" offset="0.160156"/><stop stop-opacity="1" stop-color="rgb(30.511475%, 78.152466%, 86.524963%)" offset="0.164062"/><stop stop-opacity="1" stop-color="rgb(30.368042%, 77.922058%, 86.436462%)" offset="0.167969"/><stop stop-opacity="1" stop-color="rgb(30.226135%, 77.693176%, 86.349487%)" offset="0.171875"/><stop stop-opacity="1" stop-color="rgb(30.082703%, 77.462769%, 86.260986%)" offset="0.175781"/><stop stop-opacity="1" stop-color="rgb(29.940796%, 77.233887%, 86.174011%)" offset="0.179688"/><stop stop-opacity="1" stop-color="rgb(29.797363%, 77.003479%, 86.08551%)" offset="0.183594"/><stop stop-opacity="1" stop-color="rgb(29.655457%, 76.774597%, 85.998535%)" offset="0.1875"/><stop stop-opacity="1" stop-color="rgb(29.512024%, 76.544189%, 85.91156%)" offset="0.191406"/><stop stop-opacity="1" stop-color="rgb(29.370117%, 76.315308%, 85.824585%)" offset="0.195312"/><stop stop-opacity="1" stop-color="rgb(29.226685%, 76.0849%, 85.736084%)" offset="0.199219"/><stop stop-opacity="1" stop-color="rgb(29.084778%, 75.856018%, 85.649109%)" offset="0.203125"/><stop stop-opacity="1" stop-color="rgb(28.941345%, 75.62561%, 85.560608%)" offset="0.207031"/><stop stop-opacity="1" stop-color="rgb(28.799438%, 75.396729%, 85.473633%)" offset="0.210938"/><stop stop-opacity="1" stop-color="rgb(28.657532%, 75.166321%, 85.386658%)" offset="0.214844"/><stop stop-opacity="1" stop-color="rgb(28.515625%, 74.937439%, 85.299683%)" offset="0.21875"/><stop stop-opacity="1" stop-color="rgb(28.372192%, 74.707031%, 85.211182%)" offset="0.222656"/><stop stop-opacity="1" stop-color="rgb(28.230286%, 74.476624%, 85.124207%)" offset="0.226563"/><stop stop-opacity="1" stop-color="rgb(28.086853%, 74.246216%, 85.035706%)" offset="0.230469"/><stop stop-opacity="1" stop-color="rgb(27.944946%, 74.017334%, 84.94873%)" offset="0.234375"/><stop stop-opacity="1" stop-color="rgb(27.801514%, 73.786926%, 84.861755%)" offset="0.238281"/><stop stop-opacity="1" stop-color="rgb(27.659607%, 73.558044%, 84.77478%)" offset="0.242188"/><stop stop-opacity="1" stop-color="rgb(27.516174%, 73.327637%, 84.686279%)" offset="0.246094"/><stop stop-opacity="1" stop-color="rgb(27.374268%, 73.098755%, 84.599304%)" offset="0.25"/><stop stop-opacity="1" stop-color="rgb(27.230835%, 72.868347%, 84.510803%)" offset="0.253906"/><stop stop-opacity="1" stop-color="rgb(27.088928%, 72.639465%, 84.423828%)" offset="0.257812"/><stop stop-opacity="1" stop-color="rgb(26.945496%, 72.409058%, 84.336853%)" offset="0.261719"/><stop stop-opacity="1" stop-color="rgb(26.803589%, 72.180176%, 84.249878%)" offset="0.265625"/><stop stop-opacity="1" stop-color="rgb(26.660156%, 71.949768%, 84.161377%)" offset="0.269531"/><stop stop-opacity="1" stop-color="rgb(26.51825%, 71.720886%, 84.074402%)" offset="0.273438"/><stop stop-opacity="1" stop-color="rgb(26.374817%, 71.490479%, 83.985901%)" offset="0.277344"/><stop stop-opacity="1" stop-color="rgb(26.23291%, 71.261597%, 83.898926%)" offset="0.28125"/><stop stop-opacity="1" stop-color="rgb(26.091003%, 71.031189%, 83.811951%)" offset="0.285156"/><stop stop-opacity="1" stop-color="rgb(25.949097%, 70.802307%, 83.724976%)" offset="0.289063"/><stop stop-opacity="1" stop-color="rgb(25.805664%, 70.571899%, 83.636475%)" offset="0.292969"/><stop stop-opacity="1" stop-color="rgb(25.663757%, 70.343018%, 83.5495%)" offset="0.296875"/><stop stop-opacity="1" stop-color="rgb(25.520325%, 70.11261%, 83.460999%)" offset="0.300781"/><stop stop-opacity="1" stop-color="rgb(25.378418%, 69.883728%, 83.374023%)" offset="0.304687"/><stop stop-opacity="1" stop-color="rgb(25.234985%, 69.65332%, 83.285522%)" offset="0.308594"/><stop stop-opacity="1" stop-color="rgb(25.093079%, 69.424438%, 83.198547%)" offset="0.3125"/><stop stop-opacity="1" stop-color="rgb(24.949646%, 69.194031%, 83.111572%)" offset="0.316406"/><stop stop-opacity="1" stop-color="rgb(24.807739%, 68.965149%, 83.024597%)" offset="0.320312"/><stop stop-opacity="1" stop-color="rgb(24.664307%, 68.734741%, 82.936096%)" offset="0.324219"/><stop stop-opacity="1" stop-color="rgb(24.5224%, 68.505859%, 82.849121%)" offset="0.328125"/><stop stop-opacity="1" stop-color="rgb(24.378967%, 68.275452%, 82.76062%)" offset="0.332031"/><stop stop-opacity="1" stop-color="rgb(24.237061%, 68.04657%, 82.673645%)" offset="0.335938"/><stop stop-opacity="1" stop-color="rgb(24.093628%, 67.816162%, 82.58667%)" offset="0.339844"/><stop stop-opacity="1" stop-color="rgb(23.951721%, 67.58728%, 82.499695%)" offset="0.34375"/><stop stop-opacity="1" stop-color="rgb(23.809814%, 67.356873%, 82.411194%)" offset="0.347656"/><stop stop-opacity="1" stop-color="rgb(23.667908%, 67.127991%, 82.324219%)" offset="0.351562"/><stop stop-opacity="1" stop-color="rgb(23.524475%, 66.897583%, 82.235718%)" offset="0.355469"/><stop stop-opacity="1" stop-color="rgb(23.382568%, 66.668701%, 82.148743%)" offset="0.359375"/><stop stop-opacity="1" stop-color="rgb(23.239136%, 66.438293%, 82.061768%)" offset="0.363281"/><stop stop-opacity="1" stop-color="rgb(23.097229%, 66.207886%, 81.974792%)" offset="0.367188"/><stop stop-opacity="1" stop-color="rgb(22.953796%, 65.977478%, 81.886292%)" offset="0.371094"/><stop stop-opacity="1" stop-color="rgb(22.81189%, 65.748596%, 81.799316%)" offset="0.375"/><stop stop-opacity="1" stop-color="rgb(22.668457%, 65.518188%, 81.710815%)" offset="0.378906"/><stop stop-opacity="1" stop-color="rgb(22.52655%, 65.289307%, 81.62384%)" offset="0.382813"/><stop stop-opacity="1" stop-color="rgb(22.383118%, 65.058899%, 81.536865%)" offset="0.386719"/><stop stop-opacity="1" stop-color="rgb(22.241211%, 64.830017%, 81.44989%)" offset="0.390625"/><stop stop-opacity="1" stop-color="rgb(22.097778%, 64.599609%, 81.361389%)" offset="0.394531"/><stop stop-opacity="1" stop-color="rgb(21.955872%, 64.370728%, 81.274414%)" offset="0.398438"/><stop stop-opacity="1" stop-color="rgb(21.812439%, 64.14032%, 81.185913%)" offset="0.402344"/><stop stop-opacity="1" stop-color="rgb(21.670532%, 63.911438%, 81.098938%)" offset="0.40625"/><stop stop-opacity="1" stop-color="rgb(21.528625%, 63.68103%, 81.011963%)" offset="0.410156"/><stop stop-opacity="1" stop-color="rgb(21.386719%, 63.452148%, 80.924988%)" offset="0.414062"/><stop stop-opacity="1" stop-color="rgb(21.243286%, 63.221741%, 80.836487%)" offset="0.417969"/><stop stop-opacity="1" stop-color="rgb(21.101379%, 62.992859%, 80.749512%)" offset="0.421875"/><stop stop-opacity="1" stop-color="rgb(20.957947%, 62.762451%, 80.661011%)" offset="0.425781"/><stop stop-opacity="1" stop-color="rgb(20.81604%, 62.533569%, 80.574036%)" offset="0.429688"/><stop stop-opacity="1" stop-color="rgb(20.672607%, 62.303162%, 80.485535%)" offset="0.433594"/><stop stop-opacity="1" stop-color="rgb(20.530701%, 62.07428%, 80.39856%)" offset="0.4375"/><stop stop-opacity="1" stop-color="rgb(20.387268%, 61.843872%, 80.311584%)" offset="0.441406"/><stop stop-opacity="1" stop-color="rgb(20.245361%, 61.61499%, 80.224609%)" offset="0.445312"/><stop stop-opacity="1" stop-color="rgb(20.101929%, 61.384583%, 80.136108%)" offset="0.449219"/><stop stop-opacity="1" stop-color="rgb(19.960022%, 61.155701%, 80.049133%)" offset="0.453125"/><stop stop-opacity="1" stop-color="rgb(19.816589%, 60.925293%, 79.960632%)" offset="0.457031"/><stop stop-opacity="1" stop-color="rgb(19.674683%, 60.696411%, 79.873657%)" offset="0.460938"/><stop stop-opacity="1" stop-color="rgb(19.53125%, 60.466003%, 79.786682%)" offset="0.464844"/><stop stop-opacity="1" stop-color="rgb(19.389343%, 60.237122%, 79.699707%)" offset="0.46875"/><stop stop-opacity="1" stop-color="rgb(19.245911%, 60.006714%, 79.611206%)" offset="0.472656"/><stop stop-opacity="1" stop-color="rgb(19.104004%, 59.777832%, 79.524231%)" offset="0.476563"/><stop stop-opacity="1" stop-color="rgb(18.962097%, 59.547424%, 79.43573%)" offset="0.480469"/><stop stop-opacity="1" stop-color="rgb(18.82019%, 59.318542%, 79.348755%)" offset="0.484375"/><stop stop-opacity="1" stop-color="rgb(18.676758%, 59.088135%, 79.26178%)" offset="0.488281"/><stop stop-opacity="1" stop-color="rgb(18.534851%, 58.859253%, 79.174805%)" offset="0.492188"/><stop stop-opacity="1" stop-color="rgb(18.391418%, 58.628845%, 79.086304%)" offset="0.496094"/><stop stop-opacity="1" stop-color="rgb(18.249512%, 58.399963%, 78.999329%)" offset="0.5"/><stop stop-opacity="1" stop-color="rgb(18.106079%, 58.169556%, 78.910828%)" offset="0.503906"/><stop stop-opacity="1" stop-color="rgb(17.964172%, 57.939148%, 78.823853%)" offset="0.507812"/><stop stop-opacity="1" stop-color="rgb(17.82074%, 57.70874%, 78.736877%)" offset="0.511719"/><stop stop-opacity="1" stop-color="rgb(17.678833%, 57.479858%, 78.649902%)" offset="0.515625"/><stop stop-opacity="1" stop-color="rgb(17.5354%, 57.249451%, 78.561401%)" offset="0.519531"/><stop stop-opacity="1" stop-color="rgb(17.393494%, 57.020569%, 78.474426%)" offset="0.523438"/><stop stop-opacity="1" stop-color="rgb(17.250061%, 56.790161%, 78.385925%)" offset="0.527344"/><stop stop-opacity="1" stop-color="rgb(17.108154%, 56.561279%, 78.29895%)" offset="0.53125"/><stop stop-opacity="1" stop-color="rgb(16.964722%, 56.330872%, 78.211975%)" offset="0.535156"/><stop stop-opacity="1" stop-color="rgb(16.822815%, 56.10199%, 78.125%)" offset="0.539062"/><stop stop-opacity="1" stop-color="rgb(16.680908%, 55.871582%, 78.036499%)" offset="0.542969"/><stop stop-opacity="1" stop-color="rgb(16.539001%, 55.6427%, 77.949524%)" offset="0.546875"/><stop stop-opacity="1" stop-color="rgb(16.395569%, 55.412292%, 77.861023%)" offset="0.550781"/><stop stop-opacity="1" stop-color="rgb(16.253662%, 55.183411%, 77.774048%)" offset="0.554687"/><stop stop-opacity="1" stop-color="rgb(16.110229%, 54.953003%, 77.685547%)" offset="0.558594"/><stop stop-opacity="1" stop-color="rgb(15.968323%, 54.724121%, 77.598572%)" offset="0.5625"/><stop stop-opacity="1" stop-color="rgb(15.82489%, 54.493713%, 77.511597%)" offset="0.566406"/><stop stop-opacity="1" stop-color="rgb(15.682983%, 54.264832%, 77.424622%)" offset="0.570312"/><stop stop-opacity="1" stop-color="rgb(15.539551%, 54.034424%, 77.336121%)" offset="0.574219"/><stop stop-opacity="1" stop-color="rgb(15.397644%, 53.805542%, 77.249146%)" offset="0.578125"/><stop stop-opacity="1" stop-color="rgb(15.254211%, 53.575134%, 77.160645%)" offset="0.582031"/><stop stop-opacity="1" stop-color="rgb(15.112305%, 53.346252%, 77.073669%)" offset="0.585938"/><stop stop-opacity="1" stop-color="rgb(14.968872%, 53.115845%, 76.986694%)" offset="0.589844"/><stop stop-opacity="1" stop-color="rgb(14.826965%, 52.886963%, 76.899719%)" offset="0.59375"/><stop stop-opacity="1" stop-color="rgb(14.683533%, 52.656555%, 76.811218%)" offset="0.597656"/><stop stop-opacity="1" stop-color="rgb(14.541626%, 52.427673%, 76.724243%)" offset="0.601562"/><stop stop-opacity="1" stop-color="rgb(14.399719%, 52.197266%, 76.635742%)" offset="0.605469"/><stop stop-opacity="1" stop-color="rgb(14.257812%, 51.968384%, 76.548767%)" offset="0.609375"/><stop stop-opacity="1" stop-color="rgb(14.11438%, 51.737976%, 76.461792%)" offset="0.613281"/><stop stop-opacity="1" stop-color="rgb(13.972473%, 51.509094%, 76.374817%)" offset="0.617188"/><stop stop-opacity="1" stop-color="rgb(13.829041%, 51.278687%, 76.286316%)" offset="0.621094"/><stop stop-opacity="1" stop-color="rgb(13.687134%, 51.049805%, 76.199341%)" offset="0.625"/><stop stop-opacity="1" stop-color="rgb(13.543701%, 50.819397%, 76.11084%)" offset="0.628906"/><stop stop-opacity="1" stop-color="rgb(13.401794%, 50.590515%, 76.023865%)" offset="0.632812"/><stop stop-opacity="1" stop-color="rgb(13.258362%, 50.360107%, 75.93689%)" offset="0.636719"/><stop stop-opacity="1" stop-color="rgb(13.116455%, 50.131226%, 75.849915%)" offset="0.640625"/><stop stop-opacity="1" stop-color="rgb(12.973022%, 49.900818%, 75.761414%)" offset="0.644531"/><stop stop-opacity="1" stop-color="rgb(12.831116%, 49.67041%, 75.674438%)" offset="0.648437"/><stop stop-opacity="1" stop-color="rgb(12.687683%, 49.440002%, 75.585938%)" offset="0.652344"/><stop stop-opacity="1" stop-color="rgb(12.545776%, 49.211121%, 75.498962%)" offset="0.65625"/><stop stop-opacity="1" stop-color="rgb(12.402344%, 48.980713%, 75.410461%)" offset="0.660156"/><stop stop-opacity="1" stop-color="rgb(12.260437%, 48.751831%, 75.323486%)" offset="0.664062"/><stop stop-opacity="1" stop-color="rgb(12.117004%, 48.521423%, 75.236511%)" offset="0.667969"/><stop stop-opacity="1" stop-color="rgb(11.975098%, 48.292542%, 75.149536%)" offset="0.671875"/><stop stop-opacity="1" stop-color="rgb(11.833191%, 48.062134%, 75.061035%)" offset="0.675781"/><stop stop-opacity="1" stop-color="rgb(11.691284%, 47.833252%, 74.97406%)" offset="0.679688"/><stop stop-opacity="1" stop-color="rgb(11.547852%, 47.602844%, 74.885559%)" offset="0.683594"/><stop stop-opacity="1" stop-color="rgb(11.405945%, 47.373962%, 74.798584%)" offset="0.6875"/><stop stop-opacity="1" stop-color="rgb(11.262512%, 47.143555%, 74.711609%)" offset="0.691406"/><stop stop-opacity="1" stop-color="rgb(11.120605%, 46.914673%, 74.624634%)" offset="0.695312"/><stop stop-opacity="1" stop-color="rgb(10.977173%, 46.684265%, 74.536133%)" offset="0.699219"/><stop stop-opacity="1" stop-color="rgb(10.835266%, 46.455383%, 74.449158%)" offset="0.703125"/><stop stop-opacity="1" stop-color="rgb(10.691833%, 46.224976%, 74.360657%)" offset="0.707031"/><stop stop-opacity="1" stop-color="rgb(10.549927%, 45.996094%, 74.273682%)" offset="0.710938"/><stop stop-opacity="1" stop-color="rgb(10.406494%, 45.765686%, 74.186707%)" offset="0.714844"/><stop stop-opacity="1" stop-color="rgb(10.264587%, 45.536804%, 74.099731%)" offset="0.71875"/><stop stop-opacity="1" stop-color="rgb(10.121155%, 45.306396%, 74.01123%)" offset="0.722656"/><stop stop-opacity="1" stop-color="rgb(9.979248%, 45.077515%, 73.924255%)" offset="0.726562"/><stop stop-opacity="1" stop-color="rgb(9.835815%, 44.847107%, 73.835754%)" offset="0.730469"/><stop stop-opacity="1" stop-color="rgb(9.693909%, 44.618225%, 73.748779%)" offset="0.734375"/><stop stop-opacity="1" stop-color="rgb(9.552002%, 44.387817%, 73.661804%)" offset="0.738281"/><stop stop-opacity="1" stop-color="rgb(9.410095%, 44.158936%, 73.574829%)" offset="0.742187"/><stop stop-opacity="1" stop-color="rgb(9.266663%, 43.928528%, 73.486328%)" offset="0.746094"/><stop stop-opacity="1" stop-color="rgb(9.124756%, 43.699646%, 73.399353%)" offset="0.75"/><stop stop-opacity="1" stop-color="rgb(8.981323%, 43.469238%, 73.310852%)" offset="0.753906"/><stop stop-opacity="1" stop-color="rgb(8.839417%, 43.240356%, 73.223877%)" offset="0.757812"/><stop stop-opacity="1" stop-color="rgb(8.695984%, 43.009949%, 73.136902%)" offset="0.761719"/><stop stop-opacity="1" stop-color="rgb(8.554077%, 42.781067%, 73.049927%)" offset="0.765625"/><stop stop-opacity="1" stop-color="rgb(8.410645%, 42.550659%, 72.961426%)" offset="0.769531"/><stop stop-opacity="1" stop-color="rgb(8.268738%, 42.321777%, 72.874451%)" offset="0.773438"/><stop stop-opacity="1" stop-color="rgb(8.125305%, 42.09137%, 72.78595%)" offset="0.777344"/><stop stop-opacity="1" stop-color="rgb(7.983398%, 41.862488%, 72.698975%)" offset="0.78125"/><stop stop-opacity="1" stop-color="rgb(7.839966%, 41.63208%, 72.610474%)" offset="0.785156"/><stop stop-opacity="1" stop-color="rgb(7.698059%, 41.401672%, 72.523499%)" offset="0.789062"/><stop stop-opacity="1" stop-color="rgb(7.554626%, 41.171265%, 72.436523%)" offset="0.792969"/><stop stop-opacity="1" stop-color="rgb(7.41272%, 40.942383%, 72.349548%)" offset="0.796875"/><stop stop-opacity="1" stop-color="rgb(7.270813%, 40.711975%, 72.261047%)" offset="0.800781"/><stop stop-opacity="1" stop-color="rgb(7.128906%, 40.483093%, 72.174072%)" offset="0.804688"/><stop stop-opacity="1" stop-color="rgb(6.985474%, 40.252686%, 72.085571%)" offset="0.808594"/><stop stop-opacity="1" stop-color="rgb(6.843567%, 40.023804%, 71.998596%)" offset="0.8125"/><stop stop-opacity="1" stop-color="rgb(6.700134%, 39.793396%, 71.911621%)" offset="0.816406"/><stop stop-opacity="1" stop-color="rgb(6.558228%, 39.564514%, 71.824646%)" offset="0.820312"/><stop stop-opacity="1" stop-color="rgb(6.414795%, 39.334106%, 71.736145%)" offset="0.824219"/><stop stop-opacity="1" stop-color="rgb(6.272888%, 39.105225%, 71.64917%)" offset="0.828125"/><stop stop-opacity="1" stop-color="rgb(6.129456%, 38.874817%, 71.560669%)" offset="0.832031"/><stop stop-opacity="1" stop-color="rgb(5.987549%, 38.645935%, 71.473694%)" offset="0.835937"/><stop stop-opacity="1" stop-color="rgb(5.844116%, 38.415527%, 71.386719%)" offset="0.839844"/><stop stop-opacity="1" stop-color="rgb(5.702209%, 38.186646%, 71.299744%)" offset="0.84375"/><stop stop-opacity="1" stop-color="rgb(5.558777%, 37.956238%, 71.211243%)" offset="0.847656"/><stop stop-opacity="1" stop-color="rgb(5.41687%, 37.727356%, 71.124268%)" offset="0.851562"/><stop stop-opacity="1" stop-color="rgb(5.273438%, 37.496948%, 71.035767%)" offset="0.855469"/><stop stop-opacity="1" stop-color="rgb(5.131531%, 37.268066%, 70.948792%)" offset="0.859375"/><stop stop-opacity="1" stop-color="rgb(4.988098%, 37.037659%, 70.861816%)" offset="0.863281"/><stop stop-opacity="1" stop-color="rgb(4.846191%, 36.808777%, 70.774841%)" offset="0.867188"/><stop stop-opacity="1" stop-color="rgb(4.704285%, 36.578369%, 70.68634%)" offset="0.871094"/><stop stop-opacity="1" stop-color="rgb(4.562378%, 36.349487%, 70.599365%)" offset="0.875"/><stop stop-opacity="1" stop-color="rgb(4.418945%, 36.11908%, 70.510864%)" offset="0.878906"/><stop stop-opacity="1" stop-color="rgb(4.277039%, 35.890198%, 70.423889%)" offset="0.882812"/><stop stop-opacity="1" stop-color="rgb(4.133606%, 35.65979%, 70.336914%)" offset="0.886719"/><stop stop-opacity="1" stop-color="rgb(3.991699%, 35.430908%, 70.249939%)" offset="0.890625"/><stop stop-opacity="1" stop-color="rgb(3.848267%, 35.2005%, 70.161438%)" offset="0.894531"/><stop stop-opacity="1" stop-color="rgb(3.70636%, 34.971619%, 70.074463%)" offset="0.898438"/><stop stop-opacity="1" stop-color="rgb(3.562927%, 34.741211%, 69.985962%)" offset="0.902344"/><stop stop-opacity="1" stop-color="rgb(3.421021%, 34.512329%, 69.898987%)" offset="0.90625"/><stop stop-opacity="1" stop-color="rgb(3.277588%, 34.281921%, 69.810486%)" offset="0.910156"/><stop stop-opacity="1" stop-color="rgb(3.135681%, 34.05304%, 69.723511%)" offset="0.914062"/><stop stop-opacity="1" stop-color="rgb(2.992249%, 33.822632%, 69.636536%)" offset="0.917969"/><stop stop-opacity="1" stop-color="rgb(2.850342%, 33.59375%, 69.549561%)" offset="0.921875"/><stop stop-opacity="1" stop-color="rgb(2.706909%, 33.363342%, 69.46106%)" offset="0.925781"/><stop stop-opacity="1" stop-color="rgb(2.565002%, 33.132935%, 69.374084%)" offset="0.929687"/><stop stop-opacity="1" stop-color="rgb(2.423096%, 32.902527%, 69.285583%)" offset="0.933594"/><stop stop-opacity="1" stop-color="rgb(2.281189%, 32.673645%, 69.198608%)" offset="0.9375"/><stop stop-opacity="1" stop-color="rgb(2.137756%, 32.443237%, 69.111633%)" offset="0.941406"/><stop stop-opacity="1" stop-color="rgb(1.99585%, 32.214355%, 69.024658%)" offset="0.945312"/><stop stop-opacity="1" stop-color="rgb(1.852417%, 31.983948%, 68.936157%)" offset="0.949219"/><stop stop-opacity="1" stop-color="rgb(1.71051%, 31.755066%, 68.849182%)" offset="0.953125"/><stop stop-opacity="1" stop-color="rgb(1.567078%, 31.524658%, 68.760681%)" offset="0.957031"/><stop stop-opacity="1" stop-color="rgb(1.425171%, 31.295776%, 68.673706%)" offset="0.960938"/><stop stop-opacity="1" stop-color="rgb(1.281738%, 31.065369%, 68.586731%)" offset="0.964844"/><stop stop-opacity="1" stop-color="rgb(1.139832%, 30.836487%, 68.499756%)" offset="0.96875"/><stop stop-opacity="1" stop-color="rgb(0.996399%, 30.606079%, 68.411255%)" offset="0.972656"/><stop stop-opacity="1" stop-color="rgb(0.854492%, 30.377197%, 68.32428%)" offset="0.976562"/><stop stop-opacity="1" stop-color="rgb(0.71106%, 30.14679%, 68.235779%)" offset="0.980469"/><stop stop-opacity="1" stop-color="rgb(0.569153%, 29.917908%, 68.148804%)" offset="0.984375"/><stop stop-opacity="1" stop-color="rgb(0.42572%, 29.6875%, 68.061829%)" offset="0.988281"/><stop stop-opacity="1" stop-color="rgb(0.283813%, 29.458618%, 67.974854%)" offset="0.992188"/><stop stop-opacity="1" stop-color="rgb(0.141907%, 29.22821%, 67.886353%)" offset="0.996094"/><stop stop-opacity="1" stop-color="rgb(0%, 28.999329%, 67.799377%)" offset="1"/></linearGradient></defs><rect x="-100.8" width="1209.6" fill="#ffffff" y="-129.599994" height="1555.199927" fill-opacity="1"/><rect x="-100.8" width="1209.6" fill="#ffffff" y="-129.599994" height="1555.199927" fill-opacity="1"/><rect x="-100.8" fill="url(#1aa99516e4)" width="1209.6" y="-129.599994" height="1555.199927"/><g clip-path="url(#74246d395d)"><g clip-path="url(#d5599d8d8b)"><path fill="url(#d90a60ae98)" d="M 368.785156 392.945312 L 368.785156 881.105469 L 856.945312 881.105469 L 856.945312 392.945312 Z M 368.785156 392.945312 " fill-rule="nonzero"/></g></g><g fill="#4720bb" fill-opacity="1"><g transform="translate(559.315812, 677.573056)"><g><path d="M 26.734375 0 L 10.796875 0 C 9.492188 0 8.550781 -0.289062 7.96875 -0.875 C 7.382812 -1.457031 7.09375 -2.398438 7.09375 -3.703125 L 7.09375 -70.34375 C 7.09375 -71.644531 7.382812 -72.585938 7.96875 -73.171875 C 8.550781 -73.753906 9.492188 -74.046875 10.796875 -74.046875 L 42.265625 -74.046875 C 51.585938 -74.046875 57.960938 -72.191406 61.390625 -68.484375 C 64.828125 -64.785156 66.546875 -59.957031 66.546875 -54 L 66.546875 -40.828125 C 66.546875 -34.859375 64.828125 -30.023438 61.390625 -26.328125 C 57.960938 -22.628906 51.585938 -20.78125 42.265625 -20.78125 L 30.4375 -20.78125 L 30.4375 -3.703125 C 30.4375 -2.398438 30.144531 -1.457031 29.5625 -0.875 C 28.976562 -0.289062 28.035156 0 26.734375 0 Z M 30.234375 -54.8125 L 30.234375 -39.28125 L 39.484375 -39.28125 C 41.472656 -39.28125 42.773438 -39.796875 43.390625 -40.828125 C 44.015625 -41.859375 44.328125 -43.023438 44.328125 -44.328125 L 44.328125 -49.78125 C 44.328125 -51.082031 44.015625 -52.242188 43.390625 -53.265625 C 42.773438 -54.296875 41.472656 -54.8125 39.484375 -54.8125 Z M 30.234375 -54.8125 "/></g></g></g><g fill="#4720bb" fill-opacity="1"><g transform="translate(629.455248, 677.573056)"><g><path d="M 63.140625 0 L 10.796875 0 C 9.492188 0 8.550781 -0.289062 7.96875 -0.875 C 7.382812 -1.457031 7.09375 -2.398438 7.09375 -3.703125 L 7.09375 -70.34375 C 7.09375 -71.644531 7.382812 -72.585938 7.96875 -73.171875 C 8.550781 -73.753906 9.492188 -74.046875 10.796875 -74.046875 L 26.734375 -74.046875 C 28.035156 -74.046875 28.976562 -73.753906 29.5625 -73.171875 C 30.144531 -72.585938 30.4375 -71.644531 30.4375 -70.34375 L 30.4375 -19.4375 L 44.53125 -19.4375 L 44.53125 -36.09375 C 44.53125 -37.394531 44.820312 -38.335938 45.40625 -38.921875 C 45.988281 -39.503906 46.929688 -39.796875 48.234375 -39.796875 L 63.140625 -39.796875 C 64.441406 -39.796875 65.382812 -39.503906 65.96875 -38.921875 C 66.550781 -38.335938 66.84375 -37.394531 66.84375 -36.09375 L 66.84375 -3.703125 C 66.84375 -2.398438 66.550781 -1.457031 65.96875 -0.875 C 65.382812 -0.289062 64.441406 0 63.140625 0 Z M 63.140625 0 "/></g></g></g><g fill="#4720bb" fill-opacity="1"><g transform="translate(700.931652, 677.573056)"><g><path d="M 33.9375 -52.453125 L 29.109375 -36.8125 L 45.25 -36.8125 L 40.421875 -52.453125 C 40.140625 -53.066406 39.84375 -53.507812 39.53125 -53.78125 C 39.226562 -54.0625 38.875 -54.203125 38.46875 -54.203125 L 35.890625 -54.203125 C 35.484375 -54.203125 35.125 -54.0625 34.8125 -53.78125 C 34.5 -53.507812 34.207031 -53.066406 33.9375 -52.453125 Z M 28.078125 -3.703125 C 28.078125 -2.398438 27.785156 -1.457031 27.203125 -0.875 C 26.617188 -0.289062 25.675781 0 24.375 0 L 9.25 0 C 7.945312 0 7.003906 -0.289062 6.421875 -0.875 C 5.835938 -1.457031 5.546875 -2.398438 5.546875 -3.703125 L 5.546875 -30.859375 C 5.546875 -32.910156 5.867188 -35.269531 6.515625 -37.9375 C 7.171875 -40.613281 8.1875 -43.738281 9.5625 -47.3125 L 18.515625 -70.65625 C 18.921875 -71.820312 19.550781 -72.675781 20.40625 -73.21875 C 21.269531 -73.769531 22.382812 -74.046875 23.75 -74.046875 L 51.421875 -74.046875 C 52.722656 -74.046875 53.800781 -73.769531 54.65625 -73.21875 C 55.519531 -72.675781 56.15625 -71.820312 56.5625 -70.65625 L 65.515625 -47.3125 C 66.878906 -43.738281 67.882812 -40.613281 68.53125 -37.9375 C 69.1875 -35.269531 69.515625 -32.910156 69.515625 -30.859375 L 69.515625 -3.703125 C 69.515625 -2.398438 69.222656 -1.457031 68.640625 -0.875 C 68.066406 -0.289062 67.125 0 65.8125 0 L 50.296875 0 C 48.921875 0 47.90625 -0.289062 47.25 -0.875 C 46.601562 -1.457031 46.28125 -2.398438 46.28125 -3.703125 L 46.28125 -18.09375 L 28.078125 -18.09375 Z M 28.078125 -3.703125 "/></g></g></g><g fill="#4720bb" fill-opacity="1"><g transform="translate(776.007588, 677.573056)"><g><path d="M 44.640625 0 L 27.96875 0 C 26.664062 0 25.722656 -0.289062 25.140625 -0.875 C 24.554688 -1.457031 24.265625 -2.398438 24.265625 -3.703125 L 24.265625 -16.859375 L 8.53125 -37.953125 C 6.957031 -40.078125 5.910156 -41.925781 5.390625 -43.5 C 4.878906 -45.082031 4.625 -47.445312 4.625 -50.59375 L 4.625 -70.34375 C 4.625 -71.644531 4.914062 -72.585938 5.5 -73.171875 C 6.082031 -73.753906 7.023438 -74.046875 8.328125 -74.046875 L 24.171875 -74.046875 C 25.472656 -74.046875 26.414062 -73.753906 27 -73.171875 C 27.582031 -72.585938 27.875 -71.644531 27.875 -70.34375 L 27.875 -53.484375 C 27.875 -52.796875 27.90625 -52.070312 27.96875 -51.3125 C 28.039062 -50.5625 28.316406 -49.84375 28.796875 -49.15625 L 33.53125 -41.75 C 33.875 -41.132812 34.234375 -40.6875 34.609375 -40.40625 C 34.984375 -40.132812 35.445312 -40 36 -40 L 37.03125 -40 C 37.570312 -40 38.03125 -40.132812 38.40625 -40.40625 C 38.789062 -40.6875 39.148438 -41.132812 39.484375 -41.75 L 44.21875 -49.15625 C 44.695312 -49.84375 44.96875 -50.5625 45.03125 -51.3125 C 45.101562 -52.070312 45.140625 -52.796875 45.140625 -53.484375 L 45.140625 -70.34375 C 45.140625 -71.644531 45.429688 -72.585938 46.015625 -73.171875 C 46.597656 -73.753906 47.539062 -74.046875 48.84375 -74.046875 L 64.171875 -74.046875 C 65.472656 -74.046875 66.414062 -73.753906 67 -73.171875 C 67.582031 -72.585938 67.875 -71.644531 67.875 -70.34375 L 67.875 -50.59375 C 67.875 -47.445312 67.597656 -45.082031 67.046875 -43.5 C 66.503906 -41.925781 65.476562 -40.078125 63.96875 -37.953125 L 48.34375 -16.765625 L 48.34375 -3.703125 C 48.34375 -2.398438 48.050781 -1.457031 47.46875 -0.875 C 46.882812 -0.289062 45.941406 0 44.640625 0 Z M 44.640625 0 "/></g></g></g><g fill="#5e17eb" fill-opacity="1"><g transform="translate(554.770452, 673.027721)"><g><path d="M 26.734375 0 L 10.796875 0 C 9.492188 0 8.550781 -0.289062 7.96875 -0.875 C 7.382812 -1.457031 7.09375 -2.398438 7.09375 -3.703125 L 7.09375 -70.34375 C 7.09375 -71.644531 7.382812 -72.585938 7.96875 -73.171875 C 8.550781 -73.753906 9.492188 -74.046875 10.796875 -74.046875 L 42.265625 -74.046875 C 51.585938 -74.046875 57.960938 -72.191406 61.390625 -68.484375 C 64.828125 -64.785156 66.546875 -59.957031 66.546875 -54 L 66.546875 -40.828125 C 66.546875 -34.859375 64.828125 -30.023438 61.390625 -26.328125 C 57.960938 -22.628906 51.585938 -20.78125 42.265625 -20.78125 L 30.4375 -20.78125 L 30.4375 -3.703125 C 30.4375 -2.398438 30.144531 -1.457031 29.5625 -0.875 C 28.976562 -0.289062 28.035156 0 26.734375 0 Z M 30.234375 -54.8125 L 30.234375 -39.28125 L 39.484375 -39.28125 C 41.472656 -39.28125 42.773438 -39.796875 43.390625 -40.828125 C 44.015625 -41.859375 44.328125 -43.023438 44.328125 -44.328125 L 44.328125 -49.78125 C 44.328125 -51.082031 44.015625 -52.242188 43.390625 -53.265625 C 42.773438 -54.296875 41.472656 -54.8125 39.484375 -54.8125 Z M 30.234375 -54.8125 "/></g></g></g><g fill="#5e17eb" fill-opacity="1"><g transform="translate(624.909889, 673.027721)"><g><path d="M 63.140625 0 L 10.796875 0 C 9.492188 0 8.550781 -0.289062 7.96875 -0.875 C 7.382812 -1.457031 7.09375 -2.398438 7.09375 -3.703125 L 7.09375 -70.34375 C 7.09375 -71.644531 7.382812 -72.585938 7.96875 -73.171875 C 8.550781 -73.753906 9.492188 -74.046875 10.796875 -74.046875 L 26.734375 -74.046875 C 28.035156 -74.046875 28.976562 -73.753906 29.5625 -73.171875 C 30.144531 -72.585938 30.4375 -71.644531 30.4375 -70.34375 L 30.4375 -19.4375 L 44.53125 -19.4375 L 44.53125 -36.09375 C 44.53125 -37.394531 44.820312 -38.335938 45.40625 -38.921875 C 45.988281 -39.503906 46.929688 -39.796875 48.234375 -39.796875 L 63.140625 -39.796875 C 64.441406 -39.796875 65.382812 -39.503906 65.96875 -38.921875 C 66.550781 -38.335938 66.84375 -37.394531 66.84375 -36.09375 L 66.84375 -3.703125 C 66.84375 -2.398438 66.550781 -1.457031 65.96875 -0.875 C 65.382812 -0.289062 64.441406 0 63.140625 0 Z M 63.140625 0 "/></g></g></g><g fill="#5e17eb" fill-opacity="1"><g transform="translate(696.386292, 673.027721)"><g><path d="M 33.9375 -52.453125 L 29.109375 -36.8125 L 45.25 -36.8125 L 40.421875 -52.453125 C 40.140625 -53.066406 39.84375 -53.507812 39.53125 -53.78125 C 39.226562 -54.0625 38.875 -54.203125 38.46875 -54.203125 L 35.890625 -54.203125 C 35.484375 -54.203125 35.125 -54.0625 34.8125 -53.78125 C 34.5 -53.507812 34.207031 -53.066406 33.9375 -52.453125 Z M 28.078125 -3.703125 C 28.078125 -2.398438 27.785156 -1.457031 27.203125 -0.875 C 26.617188 -0.289062 25.675781 0 24.375 0 L 9.25 0 C 7.945312 0 7.003906 -0.289062 6.421875 -0.875 C 5.835938 -1.457031 5.546875 -2.398438 5.546875 -3.703125 L 5.546875 -30.859375 C 5.546875 -32.910156 5.867188 -35.269531 6.515625 -37.9375 C 7.171875 -40.613281 8.1875 -43.738281 9.5625 -47.3125 L 18.515625 -70.65625 C 18.921875 -71.820312 19.550781 -72.675781 20.40625 -73.21875 C 21.269531 -73.769531 22.382812 -74.046875 23.75 -74.046875 L 51.421875 -74.046875 C 52.722656 -74.046875 53.800781 -73.769531 54.65625 -73.21875 C 55.519531 -72.675781 56.15625 -71.820312 56.5625 -70.65625 L 65.515625 -47.3125 C 66.878906 -43.738281 67.882812 -40.613281 68.53125 -37.9375 C 69.1875 -35.269531 69.515625 -32.910156 69.515625 -30.859375 L 69.515625 -3.703125 C 69.515625 -2.398438 69.222656 -1.457031 68.640625 -0.875 C 68.066406 -0.289062 67.125 0 65.8125 0 L 50.296875 0 C 48.921875 0 47.90625 -0.289062 47.25 -0.875 C 46.601562 -1.457031 46.28125 -2.398438 46.28125 -3.703125 L 46.28125 -18.09375 L 28.078125 -18.09375 Z M 28.078125 -3.703125 "/></g></g></g><g fill="#5e17eb" fill-opacity="1"><g transform="translate(771.462228, 673.027721)"><g><path d="M 44.640625 0 L 27.96875 0 C 26.664062 0 25.722656 -0.289062 25.140625 -0.875 C 24.554688 -1.457031 24.265625 -2.398438 24.265625 -3.703125 L 24.265625 -16.859375 L 8.53125 -37.953125 C 6.957031 -40.078125 5.910156 -41.925781 5.390625 -43.5 C 4.878906 -45.082031 4.625 -47.445312 4.625 -50.59375 L 4.625 -70.34375 C 4.625 -71.644531 4.914062 -72.585938 5.5 -73.171875 C 6.082031 -73.753906 7.023438 -74.046875 8.328125 -74.046875 L 24.171875 -74.046875 C 25.472656 -74.046875 26.414062 -73.753906 27 -73.171875 C 27.582031 -72.585938 27.875 -71.644531 27.875 -70.34375 L 27.875 -53.484375 C 27.875 -52.796875 27.90625 -52.070312 27.96875 -51.3125 C 28.039062 -50.5625 28.316406 -49.84375 28.796875 -49.15625 L 33.53125 -41.75 C 33.875 -41.132812 34.234375 -40.6875 34.609375 -40.40625 C 34.984375 -40.132812 35.445312 -40 36 -40 L 37.03125 -40 C 37.570312 -40 38.03125 -40.132812 38.40625 -40.40625 C 38.789062 -40.6875 39.148438 -41.132812 39.484375 -41.75 L 44.21875 -49.15625 C 44.695312 -49.84375 44.96875 -50.5625 45.03125 -51.3125 C 45.101562 -52.070312 45.140625 -52.796875 45.140625 -53.484375 L 45.140625 -70.34375 C 45.140625 -71.644531 45.429688 -72.585938 46.015625 -73.171875 C 46.597656 -73.753906 47.539062 -74.046875 48.84375 -74.046875 L 64.171875 -74.046875 C 65.472656 -74.046875 66.414062 -73.753906 67 -73.171875 C 67.582031 -72.585938 67.875 -71.644531 67.875 -70.34375 L 67.875 -50.59375 C 67.875 -47.445312 67.597656 -45.082031 67.046875 -43.5 C 66.503906 -41.925781 65.476562 -40.078125 63.96875 -37.953125 L 48.34375 -16.765625 L 48.34375 -3.703125 C 48.34375 -2.398438 48.050781 -1.457031 47.46875 -0.875 C 46.882812 -0.289062 45.941406 0 44.640625 0 Z M 44.640625 0 "/></g></g></g><g fill="#4720bb" fill-opacity="1"><g transform="translate(533.91736, 773.42564)"><g><path d="M 29.59375 0 L 11.953125 0 C 10.515625 0 9.472656 -0.320312 8.828125 -0.96875 C 8.179688 -1.613281 7.859375 -2.65625 7.859375 -4.09375 L 7.859375 -77.875 C 7.859375 -79.3125 8.179688 -80.351562 8.828125 -81 C 9.472656 -81.644531 10.515625 -81.96875 11.953125 -81.96875 L 62.734375 -81.96875 C 64.171875 -81.96875 65.210938 -81.644531 65.859375 -81 C 66.503906 -80.351562 66.828125 -79.3125 66.828125 -77.875 L 66.828125 -64.328125 C 66.828125 -62.878906 66.503906 -61.832031 65.859375 -61.1875 C 65.210938 -60.539062 64.171875 -60.21875 62.734375 -60.21875 L 33.703125 -60.21875 L 33.703125 -48.390625 L 53.5 -48.390625 C 54.945312 -48.390625 55.992188 -48.066406 56.640625 -47.421875 C 57.285156 -46.773438 57.609375 -45.726562 57.609375 -44.28125 L 57.609375 -30.625 C 57.609375 -29.175781 57.285156 -28.128906 56.640625 -27.484375 C 55.992188 -26.847656 54.945312 -26.53125 53.5 -26.53125 L 33.703125 -26.53125 L 33.703125 -4.09375 C 33.703125 -2.65625 33.378906 -1.613281 32.734375 -0.96875 C 32.085938 -0.320312 31.039062 0 29.59375 0 Z M 29.59375 0 "/></g></g></g><g fill="#4720bb" fill-opacity="1"><g transform="translate(604.267997, 773.42564)"><g><path d="M 37.5625 -58.0625 L 32.21875 -40.75 L 50.09375 -40.75 L 44.734375 -58.0625 C 44.429688 -58.738281 44.109375 -59.226562 43.765625 -59.53125 C 43.429688 -59.84375 43.035156 -60 42.578125 -60 L 39.734375 -60 C 39.273438 -60 38.875 -59.84375 38.53125 -59.53125 C 38.195312 -59.226562 37.875 -58.738281 37.5625 -58.0625 Z M 31.078125 -4.09375 C 31.078125 -2.65625 30.753906 -1.613281 30.109375 -0.96875 C 29.460938 -0.320312 28.421875 0 26.984375 0 L 10.25 0 C 8.800781 0 7.753906 -0.320312 7.109375 -0.96875 C 6.460938 -1.613281 6.140625 -2.65625 6.140625 -4.09375 L 6.140625 -34.15625 C 6.140625 -36.425781 6.5 -39.039062 7.21875 -42 C 7.945312 -44.96875 9.070312 -48.425781 10.59375 -52.375 L 20.484375 -78.203125 C 20.941406 -79.492188 21.644531 -80.441406 22.59375 -81.046875 C 23.539062 -81.660156 24.773438 -81.96875 26.296875 -81.96875 L 56.921875 -81.96875 C 58.359375 -81.96875 59.550781 -81.660156 60.5 -81.046875 C 61.457031 -80.441406 62.160156 -79.492188 62.609375 -78.203125 L 72.515625 -52.375 C 74.035156 -48.425781 75.15625 -44.96875 75.875 -42 C 76.59375 -39.039062 76.953125 -36.425781 76.953125 -34.15625 L 76.953125 -4.09375 C 76.953125 -2.65625 76.628906 -1.613281 75.984375 -0.96875 C 75.335938 -0.320312 74.296875 0 72.859375 0 L 55.671875 0 C 54.148438 0 53.03125 -0.320312 52.3125 -0.96875 C 51.59375 -1.613281 51.234375 -2.65625 51.234375 -4.09375 L 51.234375 -20.03125 L 31.078125 -20.03125 Z M 31.078125 -4.09375 "/></g></g></g><g fill="#4720bb" fill-opacity="1"><g transform="translate(687.368267, 773.42564)"><g><path d="M 45.875 0 L 9.90625 0 C 8.457031 0 7.410156 -0.320312 6.765625 -0.96875 C 6.128906 -1.613281 5.8125 -2.65625 5.8125 -4.09375 L 5.8125 -17.421875 C 5.8125 -18.859375 6.128906 -19.898438 6.765625 -20.546875 C 7.410156 -21.191406 8.457031 -21.515625 9.90625 -21.515625 L 40.53125 -21.515625 C 41.519531 -21.515625 42.257812 -21.835938 42.75 -22.484375 C 43.238281 -23.128906 43.484375 -23.90625 43.484375 -24.8125 C 43.484375 -26.101562 43.238281 -27.050781 42.75 -27.65625 C 42.257812 -28.269531 41.519531 -28.613281 40.53125 -28.6875 L 23.453125 -31.078125 C 18.140625 -31.835938 13.867188 -33.582031 10.640625 -36.3125 C 7.421875 -39.050781 5.8125 -43.609375 5.8125 -49.984375 L 5.8125 -61.9375 C 5.8125 -68.382812 7.894531 -73.332031 12.0625 -76.78125 C 16.238281 -80.238281 22.007812 -81.96875 29.375 -81.96875 L 61.25 -81.96875 C 62.6875 -81.96875 63.726562 -81.644531 64.375 -81 C 65.019531 -80.351562 65.34375 -79.3125 65.34375 -77.875 L 65.34375 -64.328125 C 65.34375 -62.878906 65.019531 -61.832031 64.375 -61.1875 C 63.726562 -60.539062 62.6875 -60.21875 61.25 -60.21875 L 34.71875 -60.21875 C 33.738281 -60.21875 32.984375 -59.894531 32.453125 -59.25 C 31.921875 -58.601562 31.65625 -57.789062 31.65625 -56.8125 C 31.65625 -55.820312 31.921875 -54.984375 32.453125 -54.296875 C 32.984375 -53.617188 33.738281 -53.242188 34.71875 -53.171875 L 51.6875 -50.890625 C 57 -50.128906 61.285156 -48.378906 64.546875 -45.640625 C 67.804688 -42.910156 69.4375 -38.359375 69.4375 -31.984375 L 69.4375 -20.03125 C 69.4375 -13.582031 67.332031 -8.628906 63.125 -5.171875 C 58.914062 -1.722656 53.164062 0 45.875 0 Z M 45.875 0 "/></g></g></g><g fill="#4720bb" fill-opacity="1"><g transform="translate(761.36166, 773.42564)"><g><path d="M 46.5625 0 L 28.125 0 C 26.675781 0 25.628906 -0.320312 24.984375 -0.96875 C 24.335938 -1.613281 24.015625 -2.65625 24.015625 -4.09375 L 24.015625 -60 L 7.28125 -60 C 5.84375 -60 4.800781 -60.320312 4.15625 -60.96875 C 3.507812 -61.613281 3.1875 -62.65625 3.1875 -64.09375 L 3.1875 -77.875 C 3.1875 -79.3125 3.507812 -80.351562 4.15625 -81 C 4.800781 -81.644531 5.84375 -81.96875 7.28125 -81.96875 L 67.390625 -81.96875 C 68.835938 -81.96875 69.882812 -81.644531 70.53125 -81 C 71.175781 -80.351562 71.5 -79.3125 71.5 -77.875 L 71.5 -64.09375 C 71.5 -62.65625 71.175781 -61.613281 70.53125 -60.96875 C 69.882812 -60.320312 68.835938 -60 67.390625 -60 L 50.65625 -60 L 50.65625 -4.09375 C 50.65625 -2.65625 50.332031 -1.613281 49.6875 -0.96875 C 49.039062 -0.320312 48 0 46.5625 0 Z M 46.5625 0 "/></g></g></g><g fill="#c1ff72" fill-opacity="1"><g transform="translate(528.885957, 768.394256)"><g><path d="M 29.59375 0 L 11.953125 0 C 10.515625 0 9.472656 -0.320312 8.828125 -0.96875 C 8.179688 -1.613281 7.859375 -2.65625 7.859375 -4.09375 L 7.859375 -77.875 C 7.859375 -79.3125 8.179688 -80.351562 8.828125 -81 C 9.472656 -81.644531 10.515625 -81.96875 11.953125 -81.96875 L 62.734375 -81.96875 C 64.171875 -81.96875 65.210938 -81.644531 65.859375 -81 C 66.503906 -80.351562 66.828125 -79.3125 66.828125 -77.875 L 66.828125 -64.328125 C 66.828125 -62.878906 66.503906 -61.832031 65.859375 -61.1875 C 65.210938 -60.539062 64.171875 -60.21875 62.734375 -60.21875 L 33.703125 -60.21875 L 33.703125 -48.390625 L 53.5 -48.390625 C 54.945312 -48.390625 55.992188 -48.066406 56.640625 -47.421875 C 57.285156 -46.773438 57.609375 -45.726562 57.609375 -44.28125 L 57.609375 -30.625 C 57.609375 -29.175781 57.285156 -28.128906 56.640625 -27.484375 C 55.992188 -26.847656 54.945312 -26.53125 53.5 -26.53125 L 33.703125 -26.53125 L 33.703125 -4.09375 C 33.703125 -2.65625 33.378906 -1.613281 32.734375 -0.96875 C 32.085938 -0.320312 31.039062 0 29.59375 0 Z M 29.59375 0 "/></g></g></g><g fill="#c1ff72" fill-opacity="1"><g transform="translate(599.236594, 768.394256)"><g><path d="M 37.5625 -58.0625 L 32.21875 -40.75 L 50.09375 -40.75 L 44.734375 -58.0625 C 44.429688 -58.738281 44.109375 -59.226562 43.765625 -59.53125 C 43.429688 -59.84375 43.035156 -60 42.578125 -60 L 39.734375 -60 C 39.273438 -60 38.875 -59.84375 38.53125 -59.53125 C 38.195312 -59.226562 37.875 -58.738281 37.5625 -58.0625 Z M 31.078125 -4.09375 C 31.078125 -2.65625 30.753906 -1.613281 30.109375 -0.96875 C 29.460938 -0.320312 28.421875 0 26.984375 0 L 10.25 0 C 8.800781 0 7.753906 -0.320312 7.109375 -0.96875 C 6.460938 -1.613281 6.140625 -2.65625 6.140625 -4.09375 L 6.140625 -34.15625 C 6.140625 -36.425781 6.5 -39.039062 7.21875 -42 C 7.945312 -44.96875 9.070312 -48.425781 10.59375 -52.375 L 20.484375 -78.203125 C 20.941406 -79.492188 21.644531 -80.441406 22.59375 -81.046875 C 23.539062 -81.660156 24.773438 -81.96875 26.296875 -81.96875 L 56.921875 -81.96875 C 58.359375 -81.96875 59.550781 -81.660156 60.5 -81.046875 C 61.457031 -80.441406 62.160156 -79.492188 62.609375 -78.203125 L 72.515625 -52.375 C 74.035156 -48.425781 75.15625 -44.96875 75.875 -42 C 76.59375 -39.039062 76.953125 -36.425781 76.953125 -34.15625 L 76.953125 -4.09375 C 76.953125 -2.65625 76.628906 -1.613281 75.984375 -0.96875 C 75.335938 -0.320312 74.296875 0 72.859375 0 L 55.671875 0 C 54.148438 0 53.03125 -0.320312 52.3125 -0.96875 C 51.59375 -1.613281 51.234375 -2.65625 51.234375 -4.09375 L 51.234375 -20.03125 L 31.078125 -20.03125 Z M 31.078125 -4.09375 "/></g></g></g><g fill="#c1ff72" fill-opacity="1"><g transform="translate(682.336864, 768.394256)"><g><path d="M 45.875 0 L 9.90625 0 C 8.457031 0 7.410156 -0.320312 6.765625 -0.96875 C 6.128906 -1.613281 5.8125 -2.65625 5.8125 -4.09375 L 5.8125 -17.421875 C 5.8125 -18.859375 6.128906 -19.898438 6.765625 -20.546875 C 7.410156 -21.191406 8.457031 -21.515625 9.90625 -21.515625 L 40.53125 -21.515625 C 41.519531 -21.515625 42.257812 -21.835938 42.75 -22.484375 C 43.238281 -23.128906 43.484375 -23.90625 43.484375 -24.8125 C 43.484375 -26.101562 43.238281 -27.050781 42.75 -27.65625 C 42.257812 -28.269531 41.519531 -28.613281 40.53125 -28.6875 L 23.453125 -31.078125 C 18.140625 -31.835938 13.867188 -33.582031 10.640625 -36.3125 C 7.421875 -39.050781 5.8125 -43.609375 5.8125 -49.984375 L 5.8125 -61.9375 C 5.8125 -68.382812 7.894531 -73.332031 12.0625 -76.78125 C 16.238281 -80.238281 22.007812 -81.96875 29.375 -81.96875 L 61.25 -81.96875 C 62.6875 -81.96875 63.726562 -81.644531 64.375 -81 C 65.019531 -80.351562 65.34375 -79.3125 65.34375 -77.875 L 65.34375 -64.328125 C 65.34375 -62.878906 65.019531 -61.832031 64.375 -61.1875 C 63.726562 -60.539062 62.6875 -60.21875 61.25 -60.21875 L 34.71875 -60.21875 C 33.738281 -60.21875 32.984375 -59.894531 32.453125 -59.25 C 31.921875 -58.601562 31.65625 -57.789062 31.65625 -56.8125 C 31.65625 -55.820312 31.921875 -54.984375 32.453125 -54.296875 C 32.984375 -53.617188 33.738281 -53.242188 34.71875 -53.171875 L 51.6875 -50.890625 C 57 -50.128906 61.285156 -48.378906 64.546875 -45.640625 C 67.804688 -42.910156 69.4375 -38.359375 69.4375 -31.984375 L 69.4375 -20.03125 C 69.4375 -13.582031 67.332031 -8.628906 63.125 -5.171875 C 58.914062 -1.722656 53.164062 0 45.875 0 Z M 45.875 0 "/></g></g></g><g fill="#c1ff72" fill-opacity="1"><g transform="translate(756.330258, 768.394256)"><g><path d="M 46.5625 0 L 28.125 0 C 26.675781 0 25.628906 -0.320312 24.984375 -0.96875 C 24.335938 -1.613281 24.015625 -2.65625 24.015625 -4.09375 L 24.015625 -60 L 7.28125 -60 C 5.84375 -60 4.800781 -60.320312 4.15625 -60.96875 C 3.507812 -61.613281 3.1875 -62.65625 3.1875 -64.09375 L 3.1875 -77.875 C 3.1875 -79.3125 3.507812 -80.351562 4.15625 -81 C 4.800781 -81.644531 5.84375 -81.96875 7.28125 -81.96875 L 67.390625 -81.96875 C 68.835938 -81.96875 69.882812 -81.644531 70.53125 -81 C 71.175781 -80.351562 71.5 -79.3125 71.5 -77.875 L 71.5 -64.09375 C 71.5 -62.65625 71.175781 -61.613281 70.53125 -60.96875 C 69.882812 -60.320312 68.835938 -60 67.390625 -60 L 50.65625 -60 L 50.65625 -4.09375 C 50.65625 -2.65625 50.332031 -1.613281 49.6875 -0.96875 C 49.039062 -0.320312 48 0 46.5625 0 Z M 46.5625 0 "/></g></g></g><path fill="#efede8" d="M 678.710938 375.441406 C 678.710938 508.445312 568.285156 616.265625 432.066406 616.265625 C 295.84375 616.265625 185.417969 508.445312 185.417969 375.441406 C 185.417969 242.4375 295.84375 134.617188 432.066406 134.617188 C 568.285156 134.617188 678.710938 242.4375 678.710938 375.441406 Z M 678.710938 375.441406 " fill-opacity="1" fill-rule="nonzero"/><path fill="#c1ff72" d="M 641.238281 434.074219 C 628.195312 483.132812 621.082031 489.699219 614.332031 511.585938 C 605.925781 538.859375 570.515625 564.378906 541.785156 581.929688 C 508.460938 602.289062 462.84375 606.339844 420.097656 605.527344 C 396.945312 605.085938 373.582031 603.417969 351.625 597.816406 C 329.667969 592.210938 309.054688 582.390625 295.605469 568.058594 C 282.152344 553.730469 276.679688 534.59375 284.316406 517.976562 C 292.566406 500.007812 314.351562 487.46875 337.226562 479.726562 C 360.105469 471.984375 384.886719 467.984375 408.03125 460.714844 C 432.925781 452.894531 455.761719 441.304688 474.765625 426.792969 C 491.949219 413.671875 533.253906 345.695312 563.1875 315.082031 C 572.234375 305.835938 584.683594 300.753906 597.617188 300.753906 C 597.839844 300.753906 598.066406 300.753906 598.292969 300.753906 C 623.558594 300.753906 644.691406 320.136719 646.675781 345.339844 C 649.3125 378.828125 644.796875 420.6875 641.238281 434.074219 Z M 641.238281 434.074219 " fill-opacity="1" fill-rule="nonzero"/><path fill="#0cc0df" d="M 308.964844 437.554688 C 306.90625 440.488281 303.601562 442.238281 300.527344 444.089844 C 283.371094 454.417969 270.195312 471.199219 264.226562 490.324219 C 262.90625 494.546875 261.90625 498.921875 259.753906 502.785156 C 257.601562 506.644531 254.007812 510.019531 249.625 510.566406 C 246.636719 510.9375 243.613281 509.957031 240.996094 508.464844 C 235.726562 505.460938 231.847656 500.496094 228.769531 495.269531 C 221.671875 483.210938 218.222656 469.402344 215.144531 455.753906 C 210.039062 433.101562 205.699219 410.128906 205.441406 386.910156 C 205.253906 369.90625 207.34375 352.90625 211.414062 336.40625 C 218.699219 306.890625 232.25 279.046875 250.195312 254.5625 C 259.035156 242.5 269.027344 231.332031 279.648438 220.820312 C 286.605469 213.9375 303.839844 204.328125 306.320312 220.089844 C 307.863281 229.890625 306.027344 239.902344 303.558594 249.511719 C 294.578125 284.472656 277 319.167969 282.917969 354.773438 C 286.597656 376.890625 299.015625 396.390625 307.886719 416.976562 C 310.734375 423.582031 313.097656 431.667969 308.964844 437.554688 Z M 308.964844 437.554688 " fill-opacity="1" fill-rule="nonzero"/><path fill="#4720bb" d="M 685.109375 371.449219 C 683.382812 349.296875 678.257812 327.507812 670.679688 306.726562 C 663.058594 285.960938 653.316406 265.960938 641.46875 247.355469 C 629.664062 228.746094 616.441406 210.640625 600.058594 195.546875 C 583.875 180.328125 565.507812 167.359375 545.492188 157.617188 C 525.511719 147.816406 503.925781 141.320312 481.917969 138.34375 C 437.839844 132.261719 392.621094 139.089844 351.648438 155.453125 C 346.578125 157.644531 341.425781 159.648438 336.429688 161.996094 L 321.605469 169.375 L 307.269531 177.652344 C 302.5625 180.527344 298.035156 183.695312 293.417969 186.707031 C 275.296875 199.292969 258.550781 213.867188 243.820312 230.292969 C 229.144531 246.75 216.46875 265.035156 206.644531 284.785156 C 196.816406 304.511719 189.890625 325.734375 186.671875 347.542969 C 182.957031 367.988281 181.992188 388.945312 183.320312 409.757812 C 184.820312 430.566406 188.828125 451.230469 195.324219 471.132812 C 208.191406 510.988281 232.34375 547.320312 264.515625 574.421875 C 296.855469 601.394531 337.003906 618.3125 378.316406 624.257812 C 398.988281 627.273438 419.910156 627.960938 440.664062 626.722656 C 461.394531 625.101562 481.914062 621.835938 502.054688 617.085938 C 523.667969 612.375 543.949219 603.132812 562.792969 591.847656 C 581.539062 580.351562 599.125 566.851562 614.65625 551.199219 C 630.195312 535.570312 643.9375 518.085938 655.1875 499.03125 C 666.285156 479.90625 674.800781 459.195312 679.957031 437.601562 C 685.15625 416.023438 686.902344 393.585938 685.109375 371.449219 Z M 440.363281 620.824219 C 419.953125 621.507812 399.507812 620.367188 379.480469 616.945312 C 359.484375 613.449219 339.828125 607.976562 321.335938 599.730469 C 302.839844 591.542969 285.519531 580.769531 270.101562 567.738281 C 260.527344 559.785156 251.671875 550.96875 243.621094 541.457031 C 243.890625 532.464844 245.269531 523.34375 247.644531 514.640625 C 250.289062 504.519531 254.066406 494.710938 259.140625 485.621094 C 261.828125 480.8125 264.789062 476.164062 268 471.695312 L 273.515625 482.070312 C 276.355469 486.886719 279.070312 491.789062 282.027344 496.542969 C 288.050781 505.980469 294.320312 515.289062 301.246094 524.113281 C 307.96875 533.105469 315.5625 541.402344 323.273438 549.558594 C 331.167969 557.546875 339.425781 565.183594 348.164062 572.265625 C 365.824219 586.148438 385.089844 598.160156 405.890625 606.769531 C 420.917969 612.945312 436.605469 617.738281 452.6875 620.136719 C 448.582031 620.433594 444.476562 620.679688 440.363281 620.824219 Z M 672.75 435.917969 C 671.984375 439.304688 671.097656 442.664062 670.160156 446.011719 C 662.703125 453.269531 654.1875 459.695312 645.046875 464.714844 C 634.785156 470.621094 623.640625 474.902344 612.164062 477.4375 L 607.871094 478.441406 C 606.441406 478.765625 604.960938 478.859375 603.511719 479.082031 C 600.597656 479.457031 597.703125 479.949219 594.789062 480.273438 L 585.980469 480.613281 C 584.511719 480.644531 583.046875 480.800781 581.578125 480.722656 L 577.175781 480.433594 L 568.371094 479.90625 L 559.644531 478.484375 C 553.78125 477.792969 548.113281 476.023438 542.402344 474.5 C 519.585938 467.960938 497.445312 458.148438 478.207031 444.285156 C 468.574219 437.390625 459.632812 429.453125 452.046875 420.332031 C 444.441406 411.328125 437.804688 401.054688 433.886719 390.074219 L 433.824219 389.898438 C 433.542969 389.117188 432.714844 388.65625 431.890625 388.855469 C 431.007812 389.066406 430.457031 389.953125 430.671875 390.84375 C 432.15625 397.09375 434.59375 402.746094 437.496094 408.265625 C 440.3125 413.8125 443.789062 418.972656 447.433594 424.011719 C 454.957031 433.917969 463.996094 442.585938 473.773438 450.214844 C 483.445312 458.058594 494.363281 464.082031 505.371094 469.710938 C 516.613281 474.917969 528.046875 479.519531 540.011719 482.878906 C 546.03125 484.453125 551.992188 486.257812 558.21875 486.980469 L 567.464844 488.425781 L 576.835938 488.90625 L 581.519531 489.117188 C 583.082031 489.167969 584.644531 488.976562 586.207031 488.917969 L 595.582031 488.371094 C 598.679688 487.960938 601.769531 487.410156 604.859375 486.910156 C 606.394531 486.617188 607.953125 486.445312 609.46875 486.050781 L 613.996094 484.8125 C 634.113281 479.589844 652.753906 469.253906 667.488281 454.792969 C 662.851562 468.960938 656.773438 482.679688 649.417969 495.695312 C 638.699219 514.355469 625.453125 531.550781 610.460938 547.054688 C 606.519531 551.1875 602.421875 555.167969 598.203125 559.019531 C 588.753906 561.265625 578.984375 562.445312 569.273438 563.011719 C 558.183594 563.648438 547.054688 563.449219 536.011719 562.371094 C 513.917969 560.261719 492.179688 554.882812 471.605469 546.585938 C 451.003906 538.34375 431.539062 527.300781 413.628906 514.113281 C 411.394531 512.457031 409.105469 510.871094 406.917969 509.15625 L 400.410156 503.925781 C 395.984375 500.539062 391.96875 496.664062 387.734375 493.042969 C 383.546875 489.363281 379.605469 485.410156 375.523438 481.605469 L 363.863281 469.578125 L 363.835938 469.546875 C 363.527344 469.230469 363.023438 469.210938 362.691406 469.507812 C 362.351562 469.8125 362.324219 470.335938 362.628906 470.675781 L 373.875 483.214844 C 377.832031 487.199219 381.648438 491.332031 385.726562 495.203125 C 389.898438 498.972656 393.886719 502.957031 398.273438 506.488281 L 404.742188 511.917969 C 406.917969 513.703125 409.199219 515.359375 411.421875 517.085938 C 429.308594 530.804688 449.105469 542.027344 469.984375 550.628906 C 490.996094 558.886719 513.152344 564.417969 535.683594 566.15625 C 555.480469 567.597656 575.554688 566.722656 594.878906 561.984375 C 584.082031 571.503906 572.503906 580.15625 560.378906 587.925781 C 542.097656 599.375 522.332031 608.839844 501.355469 613.851562 C 488.65625 616.078125 475.917969 617.96875 463.140625 619.25 C 454.886719 618.261719 446.671875 616.460938 438.652344 614.277344 C 427.96875 611.398438 417.492188 607.75 407.378906 603.273438 C 387.09375 594.441406 368.144531 582.683594 350.882812 568.863281 C 342.230469 561.964844 334.039062 554.503906 326.191406 546.6875 C 318.496094 538.726562 311.042969 530.511719 304.148438 521.820312 C 297.105469 513.25 290.710938 504.160156 284.503906 494.945312 C 281.394531 490.34375 278.511719 485.585938 275.5 480.910156 L 269.207031 470.097656 C 271.714844 466.714844 274.34375 463.417969 277.183594 460.300781 C 278.996094 458.433594 280.671875 456.449219 282.539062 454.640625 L 288.195312 449.269531 C 292.179688 445.917969 296.128906 442.527344 300.425781 439.554688 L 303.5625 437.222656 L 306.847656 435.082031 C 309.054688 433.6875 311.191406 432.179688 313.457031 430.871094 C 318.019531 428.300781 322.527344 425.636719 327.292969 423.417969 C 327.539062 423.289062 327.796875 423.183594 328.042969 423.058594 C 328.835938 425.027344 329.730469 426.941406 330.703125 428.820312 C 332.324219 431.96875 334.175781 434.988281 336.15625 437.917969 C 340.195312 443.71875 344.769531 449.179688 350.203125 453.738281 C 350.472656 453.964844 350.871094 454.003906 351.1875 453.804688 C 351.574219 453.5625 351.695312 453.046875 351.449219 452.652344 L 351.4375 452.640625 C 349.566406 449.660156 347.554688 446.847656 345.601562 443.992188 L 339.753906 435.464844 C 336.675781 430.949219 333.667969 426.375 330.648438 421.796875 C 338.984375 417.753906 347.699219 414.496094 356.417969 411.230469 C 361.4375 409.589844 366.480469 407.972656 371.550781 406.445312 C 376.683594 405.132812 381.792969 403.691406 386.960938 402.46875 C 392.148438 401.320312 397.320312 400.054688 402.542969 398.992188 C 407.785156 398.070312 413.027344 397.082031 418.277344 396.050781 L 418.351562 396.035156 C 419.167969 395.871094 419.75 395.113281 419.671875 394.265625 C 419.59375 393.355469 418.789062 392.683594 417.878906 392.761719 C 412.519531 393.234375 407.15625 393.753906 401.792969 394.339844 C 396.445312 395.023438 391.117188 395.910156 385.761719 396.6875 C 380.445312 397.644531 375.175781 398.898438 369.871094 399.996094 C 364.617188 401.316406 359.375 402.730469 354.144531 404.183594 C 333.402344 410.542969 313.132812 419.539062 295.308594 432.503906 C 277.417969 445.269531 262.261719 462.320312 252.410156 482.105469 C 244.09375 498.941406 239.210938 517.476562 239.324219 536.199219 C 235.910156 531.902344 232.644531 527.484375 229.558594 522.9375 C 218.105469 506.230469 209.308594 487.792969 202.511719 468.6875 C 200.117188 461.875 198.042969 454.953125 196.253906 447.949219 C 197.566406 443.832031 199.164062 439.769531 200.914062 435.8125 C 203.457031 430.125 206.300781 424.5625 209.53125 419.234375 C 215.796875 408.464844 223.351562 398.476562 231.664062 389.222656 C 248.375 370.765625 268.238281 355.207031 290.011719 343.066406 C 311.585938 330.523438 335.042969 321.449219 358.929688 314.144531 C 364.910156 312.320312 370.988281 310.816406 377.015625 309.132812 L 395.328125 304.960938 L 413.785156 301.402344 L 432.375 298.511719 L 432.40625 298.507812 C 432.847656 298.4375 433.15625 298.035156 433.101562 297.59375 C 433.046875 297.136719 432.632812 296.816406 432.179688 296.871094 L 413.433594 299.125 L 394.761719 302.066406 L 376.238281 305.894531 C 370.128906 307.46875 363.972656 308.863281 357.898438 310.589844 C 351.867188 312.445312 345.734375 313.996094 339.816406 316.226562 L 330.871094 319.359375 C 327.914062 320.476562 324.996094 321.695312 322.058594 322.859375 C 316.140625 325.09375 310.457031 327.894531 304.679688 330.46875 C 301.828125 331.839844 299.035156 333.332031 296.207031 334.757812 L 291.984375 336.925781 L 287.859375 339.28125 C 276.820312 345.496094 266.289062 352.628906 256.375 360.53125 C 246.472656 368.4375 237.125 377.097656 228.824219 386.703125 C 214.253906 403.535156 202.035156 422.816406 195.332031 444.164062 C 192.589844 432.6875 190.628906 421.011719 189.492188 409.242188 C 187.359375 388.96875 187.800781 368.429688 190.324219 348.109375 C 191.578125 340.613281 193.300781 333.210938 195.410156 325.925781 C 200.015625 318.601562 205.644531 311.804688 211.757812 305.621094 C 215.144531 301.847656 219.074219 298.601562 222.742188 295.113281 C 226.59375 291.820312 230.609375 288.707031 234.550781 285.527344 C 250.738281 273.269531 268.617188 263.355469 287.140625 255.054688 C 305.5 246.273438 324.996094 240.195312 344.46875 234.265625 C 354.320312 231.683594 364.234375 229.28125 374.140625 226.863281 L 404.195312 220.941406 L 404.242188 220.933594 C 404.671875 220.847656 404.964844 220.433594 404.894531 219.996094 C 404.828125 219.542969 404.40625 219.234375 403.953125 219.304688 L 373.550781 223.96875 C 363.53125 226.136719 353.496094 228.328125 343.503906 230.691406 C 323.738281 236.246094 304.046875 242.40625 285.34375 251.085938 C 266.664062 259.679688 248.472656 269.707031 232.238281 282.515625 C 228.292969 285.84375 224.285156 289.097656 220.441406 292.539062 C 216.777344 296.183594 212.859375 299.554688 209.5 303.5 C 205.355469 308.066406 201.40625 312.824219 197.902344 317.917969 C 201.460938 307.289062 205.867188 296.945312 211.050781 287.023438 C 221.027344 267.890625 233.757812 250.257812 248.398438 234.457031 C 262.996094 218.601562 279.480469 204.507812 297.3125 192.410156 C 301.855469 189.523438 306.304688 186.472656 310.925781 183.714844 L 325 175.785156 L 339.53125 168.742188 C 344.425781 166.503906 349.46875 164.609375 354.425781 162.523438 C 358.199219 161.078125 362.011719 159.738281 365.847656 158.449219 C 375.003906 158.3125 384.238281 159.226562 393.074219 161.296875 C 404.566406 163.851562 415.550781 168.503906 424.765625 175.46875 C 429.355469 178.957031 433.574219 182.90625 437.242188 187.332031 C 440.855469 191.800781 444.03125 196.625 446.625 201.792969 C 449.179688 206.886719 451.226562 212.207031 452.851562 217.699219 C 451.339844 217.375 449.824219 217.105469 448.296875 216.875 C 444.949219 216.355469 441.585938 216.089844 438.222656 215.914062 C 431.492188 215.648438 424.753906 215.808594 418.070312 216.925781 C 417.722656 216.988281 417.429688 217.265625 417.378906 217.632812 C 417.3125 218.089844 417.628906 218.515625 418.085938 218.582031 C 421.425781 219.101562 424.75 219.394531 428.074219 219.640625 C 431.390625 219.921875 434.707031 220.0625 438.015625 220.265625 C 443.25 220.511719 448.492188 220.691406 453.722656 220.867188 C 454.957031 225.554688 455.914062 230.355469 456.597656 235.25 C 460.5 258.742188 460.96875 282.820312 457.75 306.488281 C 456.234375 318.332031 453.84375 330.097656 450.441406 341.578125 C 447.246094 353.09375 443.003906 364.460938 437.792969 375.101562 L 437.722656 375.246094 C 437.308594 376.101562 437.609375 377.144531 438.4375 377.636719 C 439.3125 378.160156 440.445312 377.875 440.964844 376.996094 C 453.652344 355.699219 461.199219 331.9375 465.257812 307.613281 C 469.507812 283.28125 469.144531 258.210938 465.1875 233.828125 C 463.367188 221.644531 459.941406 209.207031 454.066406 197.945312 C 451.089844 192.320312 447.453125 187.03125 443.328125 182.15625 C 439.171875 177.296875 434.308594 173.066406 429.078125 169.449219 C 418.589844 162.195312 406.507812 157.671875 394.234375 155.507812 C 389.53125 154.71875 384.796875 154.261719 380.0625 154.078125 C 412.804688 144.945312 447.179688 141.75 480.746094 146.550781 C 489.445312 147.753906 498.054688 149.558594 506.515625 151.886719 C 512.164062 160.722656 517.550781 169.71875 521.898438 179.25 C 524.722656 184.679688 526.902344 190.402344 529.289062 196.023438 C 530.4375 198.851562 531.34375 201.777344 532.382812 204.644531 C 533.414062 207.519531 534.417969 210.402344 535.191406 213.359375 C 542.230469 236.742188 545.59375 261.1875 545.328125 285.601562 C 545.40625 310.042969 541.71875 334.40625 535.839844 358.140625 C 532.878906 370.019531 529.230469 381.730469 524.996094 393.226562 C 520.820312 404.730469 516.050781 416.097656 510.371094 426.90625 L 510.351562 426.949219 C 510.117188 427.386719 510.277344 427.933594 510.714844 428.179688 C 511.160156 428.433594 511.722656 428.273438 511.972656 427.832031 C 524.140625 406.234375 533.039062 382.996094 539.511719 359.097656 C 542.773438 347.152344 545.167969 334.972656 546.914062 322.703125 C 548.65625 310.433594 549.652344 298.039062 549.683594 285.625 C 549.71875 260.820312 546.308594 235.914062 538.726562 212.265625 C 532.109375 190.992188 521.878906 170.996094 509.375 152.699219 C 520.523438 155.945312 531.386719 160.125 541.785156 165.265625 C 560.957031 174.679688 578.535156 187.175781 594.0625 201.863281 C 598.507812 205.921875 602.691406 210.230469 606.699219 214.703125 C 609.183594 222.117188 611.484375 229.582031 613.347656 237.167969 C 616.222656 247.554688 618.199219 258.15625 620.003906 268.753906 C 623.207031 290.03125 624.589844 311.585938 623.480469 333.070312 C 623.019531 343.808594 622.066406 354.53125 620.566406 365.183594 C 619.039062 375.832031 616.921875 386.386719 614.472656 396.867188 C 611.976562 407.332031 608.992188 417.691406 605.449219 427.863281 C 601.957031 438.03125 598.042969 448.144531 593.207031 457.707031 L 593.183594 457.75 C 592.957031 458.195312 593.125 458.738281 593.5625 458.976562 C 594.011719 459.222656 594.574219 459.058594 594.816406 458.609375 C 605.285156 439.449219 612.660156 418.847656 618.15625 397.785156 C 623.640625 376.707031 626.777344 355.03125 627.832031 333.261719 C 628.71875 311.484375 627.335938 289.617188 623.652344 268.148438 C 621.578125 257.460938 619.355469 246.792969 616.1875 236.378906 C 614.488281 230.488281 612.515625 224.683594 610.414062 218.933594 C 619.167969 229.246094 626.984375 240.398438 634.300781 251.824219 C 645.964844 269.972656 655.511719 289.414062 662.992188 309.539062 C 670.425781 329.683594 675.457031 350.726562 677.210938 372.085938 C 678.964844 393.425781 677.503906 415.019531 672.75 435.917969 Z M 672.75 435.917969 " fill-opacity="1" fill-rule="nonzero"/></svg>